# xmcd
#
# Track frame offsets:
#	150
#	15675
#	34575
#	57075
#	81453
#	101403
#	116478
#	132305
#	153530
#	171680
#	187283
#	199958
#
# Disc length: 2936 seconds
#
# Revision: 5
# Processed by: cddbd v1.5.2PL0 Copyright (c) Steve Scherf et al.
# Submitted via: EasyCDDAExtractor 15.3.0.1
#
DISCID=ac0b760c
DTITLE=Cristian - El Deseo De Oir Tu Voz
DYEAR=1996
DGENRE=Latin
TTITLE0=Amarte A Ti
TTITLE1=Esperandote
TTITLE2=Amor
TTITLE3=Una Y Mil Veces
TTITLE4=Solo Tu
TTITLE5=Como Nube En El Viento
TTITLE6=El Deseo De Oir Tu Voz
TTITLE7=Dame Un Beso
TTITLE8=No Puedo Arrancarte De Mi
TTITLE9=Asi Es El Calor
TTITLE10=Odiame
TTITLE11=Morelia
EXTD=
EXTT0=
EXTT1=
EXTT2=
EXTT3=
EXTT4=
EXTT5=
EXTT6=
EXTT7=
EXTT8=
EXTT9=
EXTT10=
EXTT11=
PLAYORDER=
